<svg width="128" height="128" viewBox="0 0 128 128" fill="none" xmlns="http://www.w3.org/2000/svg">
<g clip-path="url(#clip0)">
<path d="M116.571 128C119.448 128 121.941 126.791 124.06 124.403L87.7958 78.2471C86.9258 79.0401 86.0824 79.8111 85.2858 80.5444C82.5719 83.0892 80.3693 85.075 78.678 86.4979C76.9869 87.9241 74.7369 89.3778 71.9282 90.862C69.1176 92.3479 66.4993 93.0885 64.0703 93.0885H63.9992H63.9281C61.4989 93.0885 58.8806 92.3482 56.0702 90.862C53.2599 89.3778 51.0099 87.9241 49.3204 86.4979C47.6293 85.075 45.4279 83.0895 42.7126 80.5444C41.956 79.8383 41.1168 79.0637 40.2095 78.2347L3.93811 124.403C6.05729 126.791 8.55201 128 11.429 128H116.571Z" fill="white"/>
<path d="M7.21505 49.1824C4.50142 46.8798 2.09501 44.2427 0 41.2723V111.495L31.9633 70.815C25.5689 65.1332 17.3299 57.9307 7.21505 49.1824Z" fill="white"/>
<path d="M120.857 49.1824C111.128 57.5633 102.859 64.7783 96.0495 70.8312L128 111.497V41.2723C125.951 44.183 123.571 46.8183 120.857 49.1824Z" fill="white"/>
<path d="M116.571 0H11.4297C7.76164 0 4.94157 1.57645 2.96601 4.7261C0.988828 7.87723 0.00186157 11.8181 0.00186157 16.5442C0.00186157 20.3617 1.31162 24.498 3.92997 28.9544C6.54833 33.409 9.33447 36.9079 12.287 39.453C13.9056 40.9085 18.7868 45.2273 26.9304 52.408C31.3266 56.2853 35.1497 59.6647 38.435 62.581C41.2353 65.0643 43.6503 67.2149 45.6442 68.9995C45.8731 69.2039 46.2331 69.5316 46.7109 69.9664C47.2257 70.437 47.877 71.0341 48.6807 71.7727C50.2282 73.1971 51.5137 74.3485 52.5377 75.2281C53.5602 76.1081 54.7991 77.0909 56.2524 78.1823C57.7047 79.2722 59.0744 80.0918 60.3599 80.6369C61.6458 81.1817 62.8361 81.455 63.9311 81.455H64.0022H64.0733C65.1681 81.455 66.3587 81.1817 67.6447 80.6369C68.9301 80.0918 70.2986 79.274 71.752 78.1823C73.204 77.0909 74.4412 76.106 75.467 75.2281C76.4909 74.3485 77.7765 73.1974 79.3242 71.7727C80.1262 71.0341 80.7776 70.4367 81.2924 69.9679C81.7704 69.5313 82.1301 69.2057 82.3604 68.9995C83.9137 67.6239 86.3343 65.4822 89.5887 62.6062C95.5105 57.3696 104.232 49.6621 115.789 39.453C119.265 36.3631 122.169 32.6343 124.503 28.272C126.832 23.9097 128 19.3339 128 14.546C128 10.5457 126.868 7.12273 124.608 4.2718C122.345 1.42443 119.666 0 116.571 0Z" fill="white"/>
</g>
<defs>
<clipPath id="clip0">
<rect width="128" height="128" fill="white"/>
</clipPath>
</defs>
</svg>
