<svg width="128" height="128" viewBox="0 0 128 128" fill="none" xmlns="http://www.w3.org/2000/svg">
<path d="M92.6753 0H35.3224C15.8456 0 0 15.8464 0 35.3232V92.6761C0 112.154 15.8456 127.999 35.3224 127.999H92.6753C112.154 127.999 127.999 112.153 127.999 92.6761V35.3232C128 15.8464 112.154 0 92.6753 0ZM116.643 92.6761C116.643 105.892 105.892 116.643 92.6761 116.643H35.3224C22.1077 116.643 11.3567 105.892 11.3567 92.6761V35.3232C11.3567 22.1085 22.1077 11.3567 35.3224 11.3567H92.6753C105.891 11.3567 116.643 22.1085 116.643 35.3232V92.6761H116.643Z" fill="white"/>
<path d="M63.9996 31.019C45.813 31.019 31.0175 45.8145 31.0175 64.0011C31.0175 82.187 45.813 96.9818 63.9996 96.9818C82.1863 96.9818 96.9818 82.187 96.9818 64.0011C96.9818 45.8145 82.1863 31.019 63.9996 31.019ZM63.9996 85.6243C52.0758 85.6243 42.3742 75.9242 42.3742 64.0004C42.3742 52.0758 52.0751 42.3749 63.9996 42.3749C75.9242 42.3749 85.6251 52.0758 85.6251 64.0004C85.6251 75.9242 75.9234 85.6243 63.9996 85.6243Z" fill="white"/>
<path d="M98.365 21.3892C96.177 21.3892 94.0275 22.275 92.4823 23.8271C90.9294 25.3716 90.0368 27.5218 90.0368 29.7175C90.0368 31.9063 90.9302 34.0557 92.4823 35.6078C94.0268 37.1523 96.177 38.0457 98.365 38.0457C100.561 38.0457 102.703 37.1523 104.255 35.6078C105.807 34.0557 106.693 31.9055 106.693 29.7175C106.693 27.5218 105.807 25.3716 104.255 23.8271C102.711 22.275 100.561 21.3892 98.365 21.3892Z" fill="white"/>
</svg>
