<?xml version="1.0" standalone="no"?>
<!DOCTYPE svg PUBLIC "-//W3C//DTD SVG 20010904//EN"
 "http://www.w3.org/TR/2001/REC-SVG-20010904/DTD/svg10.dtd">
<svg version="1.0" xmlns="http://www.w3.org/2000/svg"
 width="724.000000pt" height="724.000000pt" viewBox="0 0 724.000000 724.000000"
 preserveAspectRatio="xMidYMid meet">
<metadata>
Created by potrace 1.11, written by Peter Selinger 2001-2013
</metadata>
<g transform="translate(0.000000,724.000000) scale(0.100000,-0.100000)"
fill="#000000" stroke="none">
<path d="M3385 7185 c-182 -15 -265 -26 -415 -56 -1254 -244 -2288 -1147
-2700 -2356 -81 -237 -130 -451 -172 -753 -9 -63 -13 -201 -12 -410 0 -328 8
-422 55 -670 210 -1100 925 -2037 1934 -2535 448 -221 867 -330 1398 -366 191
-13 445 -2 657 27 989 135 1874 671 2451 1486 224 315 406 695 514 1073 77
269 114 490 136 814 17 252 -7 586 -62 866 -272 1372 -1308 2455 -2668 2789
-353 87 -769 121 -1116 91z m262 -681 c121 -122 299 -375 339 -481 l18 -46
-30 -56 c-16 -31 -48 -75 -71 -98 -36 -37 -49 -43 -83 -43 -49 0 -153 51 -288
139 -51 34 -101 61 -110 61 -10 0 -81 -16 -158 -35 -493 -122 -875 -331 -1223
-670 -404 -393 -658 -885 -755 -1461 l-23 -139 -7 65 c-8 79 8 315 29 431 75
402 235 739 503 1059 349 418 893 714 1412 770 58 6 123 14 144 18 l39 7 -76
64 c-98 81 -157 157 -157 200 0 45 87 135 205 213 50 33 79 57 65 54 -14 -3
-86 -17 -160 -31 -323 -63 -666 -187 -942 -341 -851 -473 -1422 -1287 -1587
-2264 -11 -69 -25 -152 -30 -185 -7 -51 -9 -38 -10 90 -5 596 219 1219 615
1715 92 115 318 340 434 432 480 379 1024 585 1605 607 99 4 191 5 205 3 14
-3 57 -37 97 -78z m1008 -984 c285 -48 386 -75 521 -139 374 -178 633 -510
700 -895 23 -129 16 -353 -13 -416 -47 -107 -130 -160 -247 -160 -88 0 -155
29 -209 90 -63 69 -70 97 -63 230 11 182 -19 302 -111 442 -78 119 -206 220
-347 273 -71 27 -347 78 -357 67 -4 -4 -19 -88 -34 -187 -14 -99 -35 -232 -46
-295 -10 -63 -25 -158 -34 -210 -30 -189 -97 -602 -150 -925 -30 -181 -70
-429 -90 -550 -54 -338 -73 -410 -141 -541 -66 -126 -116 -197 -203 -288 -159
-165 -366 -286 -596 -347 -113 -31 -130 -32 -305 -33 -205 -1 -265 7 -430 60
-200 64 -351 155 -508 308 -189 184 -305 404 -347 656 -72 429 122 868 497
1123 87 59 275 150 343 166 28 7 73 19 100 26 161 45 453 38 565 -12 105 -47
160 -128 160 -239 0 -108 -54 -186 -164 -234 -44 -20 -58 -21 -194 -15 -168 8
-252 -5 -373 -56 -170 -72 -316 -224 -368 -382 -81 -243 -22 -486 164 -673
186 -188 450 -261 710 -197 195 47 381 202 453 375 34 81 53 173 107 513 20
127 42 257 49 290 8 33 28 152 45 265 51 323 97 615 142 880 22 135 47 281 54
325 54 330 97 566 111 602 18 49 96 124 146 141 54 18 205 6 463 -38z m-1065
-19 c20 -6 15 -9 -30 -15 -30 -4 -111 -21 -180 -37 -310 -76 -597 -216 -840
-412 -392 -315 -652 -765 -749 -1297 l-17 -95 -8 83 c-14 154 19 394 79 579
231 705 897 1199 1620 1201 55 0 111 -3 125 -7z m1956 -2126 c-3 -84 -15 -194
-26 -249 -140 -703 -707 -1260 -1405 -1381 -114 -20 -306 -30 -371 -20 -49 7
-48 7 86 35 864 174 1482 780 1674 1641 14 64 26 129 27 145 l0 29 11 -25 c6
-16 8 -80 4 -175z m511 -2 c-7 -185 -25 -319 -62 -463 -220 -869 -953 -1540
-1830 -1675 -135 -21 -435 -32 -435 -17 0 7 13 12 29 12 44 0 272 47 391 81
888 252 1548 906 1804 1786 37 128 86 363 86 413 0 17 5 30 12 30 8 0 9 -44 5
-167z m560 -63 c-25 -918 -553 -1792 -1379 -2282 -285 -169 -601 -285 -938
-344 -119 -22 -184 -27 -360 -29 -118 -2 -204 -2 -190 1 14 3 74 12 135 20
390 55 812 199 1150 394 515 295 920 711 1203 1232 186 343 330 800 368 1168
12 119 17 52 11 -160z"/>
</g>
</svg>
