<svg width="128" height="128" viewBox="0 0 128 128" fill="none" xmlns="http://www.w3.org/2000/svg">
<g clip-path="url(#clip0)">
<path d="M110.751 0H17.2493C7.72349 0 0.000991821 7.72218 0.000991821 17.2483V110.751C0.000991821 120.277 7.72318 127.999 17.2493 127.999H63.3641L63.4427 82.2593H51.5595C50.0151 82.2593 48.7617 81.0106 48.7558 79.4663L48.6988 64.7224C48.6928 63.1696 49.95 61.9077 51.5028 61.9077H63.3644V47.6614C63.3644 31.1286 73.4616 22.1264 88.2099 22.1264H100.312C101.86 22.1264 103.116 23.3817 103.116 24.9304V37.3625C103.116 38.9106 101.861 40.1656 100.314 40.1665L92.8867 40.1699C84.8661 40.1699 83.313 43.9813 83.313 49.5745V61.908H100.937C102.616 61.908 103.919 63.3744 103.721 65.0421L101.974 79.786C101.807 81.1969 100.61 82.2599 99.1895 82.2599H83.3916L83.313 128H110.752C120.278 128 128 120.278 128 110.752V17.2483C128 7.72218 120.278 0 110.751 0Z" fill="white"/>
</g>
<defs>
<clipPath id="clip0">
<rect width="128" height="128" fill="white"/>
</clipPath>
</defs>
</svg>
