<svg width="128" height="128" viewBox="0 0 128 128" fill="none" xmlns="http://www.w3.org/2000/svg">
<g clip-path="url(#clip0)">
<path d="M125.13 101.158L105.363 81.3878C101.425 77.4663 94.905 77.5854 90.8305 81.6614L80.8715 91.6182C80.2423 91.2714 79.591 90.9092 78.9063 90.5249C72.6173 87.0403 64.0098 82.2641 54.9521 73.1998C45.8676 64.1164 41.087 55.4956 37.5917 49.2026C37.2229 48.5358 36.8695 47.8931 36.5205 47.2826L43.2044 40.6086L46.4905 37.3185C50.5713 33.2366 50.6838 26.7181 46.7556 22.7852L26.9881 3.01323C23.0599 -0.914181 16.5367 -0.795035 12.4559 3.28682L6.88474 8.89L7.03698 9.04113C5.16888 11.4248 3.60785 14.174 2.44618 17.1387C1.37533 19.9607 0.708631 22.6536 0.403779 25.352C-2.2064 46.991 7.68199 66.7674 34.5178 93.6036C71.613 130.696 101.507 127.894 102.797 127.757C105.605 127.422 108.297 126.75 111.033 125.688C113.972 124.54 116.719 122.981 119.101 121.117L119.223 121.225L124.867 115.699C128.939 111.617 129.057 105.097 125.13 101.158Z" fill="white"/>
</g>
<defs>
<clipPath id="clip0">
<rect width="128" height="128" fill="white"/>
</clipPath>
</defs>
</svg>
